<svg width="300" height="152" viewBox="0 0 200 52" fill="none" xmlns="http://www.w3.org/2000/svg">
<path d="M15.8384 48.4044C14.6385 47.7149 12.5988 46.3162 10.9389 43.893C9.81903 42.2381 9.23908 40.6621 8.93911 39.5588C8.23918 40.5439 6.93931 42.1199 4.79952 43.4005C2.89971 44.5431 1.13989 44.9962 0 45.2129C0.379962 45.8434 1.0399 46.7299 2.07979 47.4982C2.9797 48.168 4.25958 48.7985 6.85932 49.1137C8.65914 49.291 11.8188 49.4289 15.8384 48.4044Z" fill="#1658FF"/>
<path d="M38.5762 48.7985C36.3764 51.4975 32.9768 51.793 30.997 51.9506C25.2575 52.4037 20.778 49.6259 18.8782 48.2469C16.7984 46.8875 13.0588 44.0309 10.999 39.1255C8.81918 33.9836 9.5591 29.0781 10.139 25.5123C11.5589 16.7849 15.2185 14.4996 13.9987 10.3231C13.2787 7.84081 10.839 4.7281 2.99976 2.32462C4.6196 1.85181 15.4785 -1.2609 21.3179 4.07798C22.1579 4.84631 22.9778 5.59493 23.3577 6.85577C24.7376 11.446 17.7383 14.5587 17.8783 20.9024C17.9583 24.744 20.558 27.5612 21.078 28.1128C24.2177 31.4816 26.9774 30.2208 32.7168 33.629C35.4965 35.2838 39.2162 37.51 40.1361 41.5487C40.2161 41.9624 41.036 45.804 38.5762 48.7985Z" fill="black"/>
<path d="M24.3872 28.0931C23.6872 27.64 22.3674 26.655 21.4275 24.9016C21.3275 24.7243 20.2876 22.7346 20.4076 20.2917C20.4076 20.075 20.4276 19.9174 20.4276 19.878C20.4276 19.878 20.6076 18.0655 21.6674 16.3122C22.9873 14.1254 25.2071 13.4556 27.8068 10.6384C29.2267 9.06231 30.4666 7.70296 30.7066 5.71319C31.0265 2.9945 29.3467 0.827428 28.6468 0C33.9462 0.88653 38.0658 4.35385 39.0657 8.7471C39.2657 9.61393 40.0456 13.5541 37.6859 16.4501C34.3662 20.5478 28.1468 18.361 25.3471 22.3209C24.0872 24.1727 24.1272 26.3989 24.3872 28.0931Z" fill="#1658FF"/>
<path d="M82.3917 45.8632H72.7326L61.3338 31.4423L56.6142 36.5447V45.8829L48.4351 45.8632V9.14111H56.6142V26.2807L72.3527 9.14111H81.4918L66.8132 25.5321L82.3917 45.8632Z" fill="black"/>
<path d="M94.3306 47.1043C91.4509 47.1043 88.8912 46.5133 86.6314 45.3116C84.3716 44.1098 82.6118 42.4747 81.3319 40.4061C80.052 38.3375 79.4121 35.9735 79.4121 33.2942C79.4121 30.5952 80.052 28.2114 81.3319 26.1428C82.6118 24.0546 84.3916 22.4194 86.6314 21.2571C88.8912 20.075 91.4509 19.484 94.3306 19.484C97.2503 19.484 99.8301 20.075 102.11 21.2571C104.37 22.4391 106.149 24.0743 107.449 26.1428C108.729 28.2311 109.369 30.5952 109.369 33.2942C109.369 35.9932 108.729 38.3572 107.449 40.4258C106.169 42.4944 104.39 44.1295 102.11 45.3116C99.8301 46.4936 97.2503 47.1043 94.3306 47.1043ZM94.3306 40.7213C95.6905 40.7213 96.8704 40.4258 97.9103 39.8545C98.9502 39.2635 99.7701 38.4163 100.39 37.2737C101.01 36.1311 101.33 34.8111 101.33 33.2745C101.33 31.6984 101.01 30.3785 100.39 29.2752C99.7701 28.172 98.9302 27.3249 97.9103 26.7536C96.8704 26.1625 95.7105 25.8867 94.3906 25.8867C93.0708 25.8867 91.8909 26.1822 90.831 26.7536C89.7911 27.3446 88.9512 28.172 88.3112 29.2752C87.6913 30.3785 87.3713 31.7181 87.3713 33.2745C87.3713 34.8111 87.6913 36.1508 88.3112 37.2737C88.9312 38.4163 89.7711 39.2635 90.831 39.8545C91.8909 40.4258 93.0508 40.7213 94.3306 40.7213Z" fill="black"/>
<path d="M119.328 19.7991H111.409V45.9616H119.328V19.7991Z" fill="black"/>
<path d="M139.186 19.5825V26.6354C138.886 26.5763 138.586 26.5172 138.306 26.4778C138.026 26.4384 137.746 26.4186 137.466 26.4186C135.226 26.4186 133.447 27.0097 132.127 28.2311C130.807 29.4526 130.147 31.2847 130.147 33.767V46.1587L122.208 46.1784V19.9568H129.767V23.4241C130.507 22.4391 131.467 21.6314 132.627 21.001C134.427 20.0553 136.606 19.5825 139.186 19.5825Z" fill="black"/>
<path d="M166.883 26.064C165.644 23.9955 163.924 22.3997 161.784 21.2768C159.624 20.1538 157.224 19.5825 154.545 19.5825C151.765 19.5825 149.265 20.1735 147.045 21.3556C144.826 22.5376 143.106 24.1728 141.866 26.261C140.626 28.369 140.006 30.7331 140.006 33.3927C140.006 36.072 140.646 38.4164 141.926 40.5046C143.226 42.5929 145.026 44.2281 147.365 45.4101C149.705 46.6118 152.425 47.2029 155.545 47.2029C158.004 47.2029 160.204 46.8285 162.084 46.0996C163.984 45.351 165.544 44.2675 166.803 42.8687L162.584 38.377C161.664 39.2438 160.664 39.8939 159.564 40.3273C158.464 40.7607 157.204 40.9774 155.785 40.9774C154.125 40.9774 152.705 40.7016 151.525 40.1106C150.325 39.5393 149.405 38.6922 148.725 37.5889C148.345 36.9782 148.085 36.3084 147.905 35.5795H168.603C168.643 35.2445 168.663 34.8702 168.703 34.4959C168.743 34.1216 168.763 33.767 168.763 33.4715C168.763 30.5952 168.143 28.1326 166.883 26.064ZM147.825 31.0483C147.945 30.2209 148.205 29.4525 148.585 28.7827C149.165 27.7386 149.965 26.9309 151.005 26.3398C152.045 25.7685 153.225 25.473 154.585 25.473C155.945 25.473 157.124 25.7488 158.144 26.3398C159.144 26.9112 159.944 27.7386 160.524 28.763C160.904 29.4329 161.164 30.2012 161.264 31.0483H147.825Z" fill="black"/>
<path d="M192.065 9.12134V22.3171C191.424 21.6216 190.702 21.0226 189.901 20.5396C188.177 19.535 186.153 19.0133 183.849 19.0133C181.264 19.0133 178.94 19.6122 176.876 20.7715C174.792 21.9307 173.169 23.5536 171.986 25.6595C170.804 27.7654 170.203 30.2191 170.203 33.0785C170.203 35.8992 170.804 38.3915 171.986 40.4975C173.169 42.6034 174.812 44.2456 176.876 45.3855C178.94 46.564 181.264 47.1436 183.849 47.1436C186.254 47.1436 188.318 46.6413 190.021 45.6173C190.923 45.0764 191.724 44.4002 192.405 43.5694V46.7572H200V9.12134H192.065ZM191.263 37.1937C190.622 38.3529 189.78 39.2223 188.738 39.8212C187.676 40.4009 186.494 40.71 185.172 40.71C183.889 40.71 182.707 40.4009 181.665 39.8212C180.603 39.2223 179.761 38.3529 179.14 37.1937C178.519 36.0538 178.198 34.7014 178.198 33.1364C178.198 31.5715 178.519 30.1998 179.14 29.0792C179.781 27.9586 180.623 27.1085 181.665 26.5096C182.707 25.93 183.889 25.6208 185.172 25.6208C186.494 25.6208 187.696 25.9107 188.738 26.5096C189.8 27.0892 190.642 27.9586 191.263 29.0792C191.884 30.1998 192.205 31.5329 192.205 33.1364C192.205 34.6821 191.884 36.0345 191.263 37.1937Z" fill="black"/>
<path d="M119.328 9.12134H111.409V16.9031H119.328V9.12134Z" fill="#1658FF"/>
</svg>
