<svg xmlns="http://www.w3.org/2000/svg" xmlns:xlink="http://www.w3.org/1999/xlink" width="447" zoomAndPan="magnify" viewBox="0 0 335.25 287.25" height="383" preserveAspectRatio="xMidYMid meet" version="1.0"><defs><filter x="0%" y="0%" width="100%" height="100%" id="7e1aa06da6"><feColorMatrix values="0 0 0 0 1 0 0 0 0 1 0 0 0 0 1 0 0 0 1 0" color-interpolation-filters="sRGB"/></filter><g/><clipPath id="1cd51a1bfb"><rect x="0" width="216" y="0" height="182"/></clipPath><mask id="11dacec96b"><g filter="url(#7e1aa06da6)"><rect x="-33.525" width="402.3" fill="#000000" y="-28.725" height="344.7" fill-opacity="0.91"/></g></mask><clipPath id="5ebf3bafb0"><path d="M 0.980469 0.648438 L 119.472656 0.648438 L 119.472656 104.058594 L 0.980469 104.058594 Z M 0.980469 0.648438 " clip-rule="nonzero"/></clipPath><clipPath id="af805b4421"><rect x="0" width="120" y="0" height="105"/></clipPath><clipPath id="b6f3346b6e"><rect x="0" width="120" y="0" height="105"/></clipPath></defs><g transform="matrix(1, 0, 0, 1, 45, 52)"><g clip-path="url(#1cd51a1bfb)"><g fill="#ededed" fill-opacity="1"><g transform="translate(0.90228, 131.654052)"><g><path d="M 25.9375 1.71875 C 21.226562 1.71875 17.328125 1.253906 14.234375 0.328125 C 11.148438 -0.597656 8.71875 -1.867188 6.9375 -3.484375 C 5.15625 -5.097656 3.894531 -6.941406 3.15625 -9.015625 C 2.414062 -11.097656 2.046875 -13.316406 2.046875 -15.671875 L 2.046875 -37.171875 L 22.484375 -37.171875 L 22.484375 -15.421875 C 22.484375 -14.828125 22.660156 -14.28125 23.015625 -13.78125 C 23.367188 -13.289062 23.957031 -13.046875 24.78125 -13.046875 C 25.550781 -13.046875 26.140625 -13.273438 26.546875 -13.734375 C 26.960938 -14.203125 27.171875 -14.765625 27.171875 -15.421875 C 27.171875 -17.992188 27.097656 -20.457031 26.953125 -22.8125 C 26.816406 -25.164062 26.585938 -27.300781 26.265625 -29.21875 C 25.492188 -34.03125 24.367188 -38.160156 22.890625 -41.609375 C 21.421875 -45.054688 19.78125 -48.160156 17.96875 -50.921875 C 16.164062 -53.679688 14.332031 -56.359375 12.46875 -58.953125 C 10.613281 -61.554688 8.90625 -64.347656 7.34375 -67.328125 C 5.78125 -70.316406 4.519531 -73.78125 3.5625 -77.71875 C 2.613281 -81.65625 2.140625 -86.359375 2.140625 -91.828125 L 2.140625 -95.6875 C 2.296875 -101.976562 4.273438 -106.460938 8.078125 -109.140625 C 11.878906 -111.828125 17.253906 -113.171875 24.203125 -113.171875 C 32.140625 -113.171875 37.941406 -111.597656 41.609375 -108.453125 C 45.273438 -105.304688 47.132812 -101.109375 47.1875 -95.859375 L 47.1875 -79.765625 L 27.5 -79.765625 L 27.5 -96.109375 C 27.5 -97.640625 26.703125 -98.40625 25.109375 -98.40625 C 23.578125 -98.40625 22.8125 -97.609375 22.8125 -96.015625 C 22.8125 -94.328125 22.90625 -92.660156 23.09375 -91.015625 C 23.289062 -89.367188 23.550781 -87.835938 23.875 -86.421875 C 24.644531 -83.023438 25.769531 -79.984375 27.25 -77.296875 C 28.726562 -74.617188 30.367188 -72.035156 32.171875 -69.546875 C 33.972656 -67.054688 35.800781 -64.375 37.65625 -61.5 C 39.519531 -58.632812 41.234375 -55.328125 42.796875 -51.578125 C 44.359375 -47.828125 45.617188 -43.367188 46.578125 -38.203125 C 47.535156 -33.035156 48.015625 -26.867188 48.015625 -19.703125 L 48.015625 -14.609375 C 47.898438 -10.941406 46.898438 -7.90625 45.015625 -5.5 C 43.128906 -3.09375 40.554688 -1.285156 37.296875 -0.078125 C 34.046875 1.117188 30.257812 1.71875 25.9375 1.71875 Z M 25.9375 1.71875 "/></g></g><g transform="translate(50.882017, 131.654052)"><g><path d="M 2.140625 0 L 2.140625 -111.609375 L 24.78125 -111.609375 L 24.375 -63.109375 L 26.34375 -63.109375 L 29.546875 -111.609375 L 53.265625 -111.609375 L 46.609375 -55.8125 L 53.59375 0 L 29.703125 0 L 26.34375 -47.84375 L 24.453125 -47.84375 L 24.78125 0 Z M 2.140625 0 "/></g></g><g transform="translate(105.539659, 131.654052)"><g><path d="M 2.140625 0 L 2.140625 -111.609375 L 39.234375 -111.609375 L 39.234375 -96.1875 L 25.03125 -96.1875 L 25.03125 -61.21875 L 36.28125 -61.21875 L 36.28125 -49.5625 L 25.03125 -49.5625 L 25.03125 -15.015625 L 39.46875 -15.015625 L 39.46875 0 Z M 2.140625 0 "/></g></g><g transform="translate(145.75324, 131.654052)"><g><path d="M 2.140625 0 L 2.140625 -111.609375 L 30.203125 -111.609375 L 34.0625 -36.109375 L 35.046875 -36.109375 L 38.984375 -111.609375 L 67.046875 -111.609375 L 67.046875 0 L 47.59375 0 L 50.890625 -74.265625 L 49.65625 -74.265625 L 42.671875 0 L 26.515625 0 L 19.203125 -74.265625 L 18.0625 -74.265625 L 21.578125 0 Z M 2.140625 0 "/></g></g></g></g></g><g mask="url(#11dacec96b)"><g transform="matrix(1, 0, 0, 1, 153, 103)"><g clip-path="url(#b6f3346b6e)"><g clip-path="url(#5ebf3bafb0)"><g transform="matrix(1, 0, 0, 1, -0.000000000000028422, -0.000000000000028422)"><g clip-path="url(#af805b4421)"><g fill="#ededed" fill-opacity="1"><g transform="translate(21.150136, 82.565737)"><g><path d="M -4.40625 -6.324219 C -5.644531 -9.746094 -5.765625 -13.648438 -4.773438 -18.039062 C -3.820312 -22.265625 -2.167969 -26.28125 0.179688 -30.082031 C 2.507812 -33.851562 5.363281 -37.289062 8.746094 -40.402344 C 12.1875 -43.5625 15.710938 -45.816406 19.324219 -47.167969 C 21.539062 -47.996094 23.773438 -48.300781 26.027344 -48.089844 C 27.351562 -47.964844 28.476562 -47.574219 29.402344 -46.921875 C 30.371094 -46.238281 31.078125 -45.300781 31.523438 -44.113281 C 32.316406 -41.988281 32.03125 -39.394531 30.667969 -36.328125 C 29.433594 -33.5625 27.710938 -30.957031 25.492188 -28.515625 C 23.203125 -25.992188 20.945312 -24.316406 18.714844 -23.480469 C 17.53125 -23.039062 16.214844 -22.90625 14.765625 -23.078125 C 13.875 -23.1875 13.109375 -23.460938 12.476562 -23.902344 C 11.773438 -24.394531 11.269531 -25.050781 10.960938 -25.875 C 10.691406 -26.601562 10.710938 -27.34375 11.019531 -28.105469 C 11.238281 -28.632812 11.601562 -29.15625 12.113281 -29.667969 L 12.144531 -29.703125 L 12.183594 -29.734375 C 14.421875 -31.773438 16.007812 -33.507812 16.929688 -34.941406 L 18.582031 -33.871094 L 16.753906 -34.59375 C 17.136719 -35.574219 17.679688 -36.195312 18.375 -36.453125 C 18.746094 -36.59375 19.128906 -36.628906 19.515625 -36.558594 C 19.894531 -36.492188 20.234375 -36.332031 20.53125 -36.078125 C 20.855469 -35.804688 21.101562 -35.441406 21.273438 -34.988281 C 21.550781 -34.242188 21.484375 -33.429688 21.070312 -32.554688 C 20.816406 -32.023438 20.417969 -31.433594 19.863281 -30.785156 L 18.363281 -32.054688 L 20.019531 -30.996094 C 19.757812 -30.582031 19.566406 -30.273438 19.445312 -30.0625 C 19.40625 -29.996094 19.386719 -29.957031 19.378906 -29.941406 C 19.402344 -29.996094 19.425781 -30.054688 19.445312 -30.121094 C 19.5625 -30.519531 19.546875 -30.921875 19.394531 -31.320312 C 19.300781 -31.578125 19.144531 -31.804688 18.933594 -32.003906 C 18.683594 -32.234375 18.394531 -32.386719 18.0625 -32.464844 C 17.6875 -32.554688 17.3125 -32.53125 16.949219 -32.394531 C 16.84375 -32.355469 16.761719 -32.316406 16.710938 -32.273438 C 16.75 -32.304688 16.808594 -32.359375 16.882812 -32.4375 C 17.097656 -32.660156 17.375 -32.992188 17.710938 -33.433594 C 18.441406 -34.394531 19.390625 -35.792969 20.558594 -37.632812 C 21.714844 -39.449219 22.542969 -40.878906 23.039062 -41.929688 C 23.253906 -42.382812 23.394531 -42.738281 23.464844 -42.996094 C 23.476562 -43.035156 23.484375 -43.066406 23.488281 -43.089844 L 23.488281 -43.085938 C 23.480469 -42.945312 23.507812 -42.792969 23.570312 -42.625 C 23.660156 -42.378906 23.820312 -42.171875 24.039062 -42.007812 C 24.230469 -41.863281 24.4375 -41.777344 24.652344 -41.75 C 24.71875 -41.742188 24.765625 -41.742188 24.789062 -41.746094 C 24.722656 -41.734375 24.632812 -41.703125 24.515625 -41.660156 C 21.640625 -40.585938 18.960938 -38.800781 16.480469 -36.300781 C 13.933594 -33.742188 11.871094 -30.957031 10.296875 -27.953125 C 8.679688 -24.867188 7.339844 -21.742188 6.277344 -18.574219 C 5.230469 -15.445312 4.574219 -12.675781 4.308594 -10.265625 C 4.0625 -8.027344 4.105469 -6.464844 4.4375 -5.578125 L 4.4375 -5.574219 C 4.425781 -5.597656 4.40625 -5.625 4.382812 -5.65625 C 4.289062 -5.773438 4.167969 -5.871094 4.015625 -5.945312 C 3.847656 -6.023438 3.683594 -6.0625 3.511719 -6.058594 C 3.4375 -6.058594 3.378906 -6.050781 3.34375 -6.035156 C 3.753906 -6.191406 4.671875 -6.800781 6.089844 -7.871094 C 7.585938 -8.996094 9.683594 -10.9375 12.382812 -13.695312 C 15.070312 -16.4375 17.527344 -19.441406 19.753906 -22.703125 L 21.378906 -21.59375 L 19.65625 -22.542969 C 20.046875 -23.25 20.511719 -23.703125 21.046875 -23.90625 C 21.375 -24.027344 21.710938 -24.066406 22.054688 -24.019531 C 22.417969 -23.972656 22.75 -23.835938 23.042969 -23.609375 C 23.375 -23.355469 23.617188 -23.019531 23.773438 -22.601562 C 23.910156 -22.238281 23.9375 -21.734375 23.863281 -21.085938 C 23.820312 -20.71875 23.742188 -20.21875 23.632812 -19.585938 C 23.410156 -18.285156 22.964844 -16.664062 22.292969 -14.71875 C 21.625 -12.785156 20.777344 -10.835938 19.753906 -8.871094 C 18.683594 -6.816406 17.214844 -4.855469 15.347656 -2.984375 C 13.421875 -1.058594 11.449219 0.285156 9.429688 1.039062 C 7.328125 1.824219 5.476562 2.054688 3.875 1.734375 C 2.28125 1.410156 0.949219 0.75 -0.121094 -0.246094 C -1.957031 -1.90625 -3.242188 -3.59375 -3.96875 -5.308594 L -4.386719 -6.265625 Z M -0.707031 -7.664062 L -2.558594 -6.996094 L -0.753906 -7.777344 L -0.351562 -6.847656 C 0.152344 -5.664062 1.121094 -4.425781 2.558594 -3.125 C 3.085938 -2.632812 3.789062 -2.296875 4.65625 -2.121094 C 5.519531 -1.949219 6.652344 -2.121094 8.054688 -2.644531 C 9.539062 -3.199219 11.042969 -4.242188 12.566406 -5.765625 C 14.148438 -7.351562 15.382812 -8.992188 16.265625 -10.691406 C 17.199219 -12.480469 17.96875 -14.253906 18.574219 -16.003906 C 19.175781 -17.746094 19.570312 -19.164062 19.757812 -20.253906 C 19.855469 -20.820312 19.921875 -21.25 19.957031 -21.546875 C 19.96875 -21.660156 19.976562 -21.742188 19.980469 -21.789062 C 19.972656 -21.625 20.011719 -21.4375 20.089844 -21.222656 C 20.195312 -20.9375 20.382812 -20.691406 20.648438 -20.488281 C 20.910156 -20.289062 21.207031 -20.164062 21.535156 -20.121094 C 21.839844 -20.082031 22.136719 -20.113281 22.425781 -20.21875 C 22.738281 -20.339844 22.980469 -20.507812 23.152344 -20.734375 L 23.15625 -20.738281 C 23.140625 -20.714844 23.121094 -20.683594 23.101562 -20.644531 L 23.054688 -20.5625 L 23.003906 -20.484375 C 20.648438 -17.03125 18.042969 -13.851562 15.191406 -10.941406 C 12.355469 -8.046875 10.109375 -5.976562 8.457031 -4.730469 C 6.734375 -3.429688 5.488281 -2.636719 4.71875 -2.351562 C 3.851562 -2.027344 3.042969 -2.042969 2.300781 -2.40625 C 1.585938 -2.75 1.070312 -3.347656 0.753906 -4.199219 C 0.203125 -5.671875 0.0859375 -7.835938 0.398438 -10.695312 C 0.691406 -13.382812 1.410156 -16.429688 2.550781 -19.824219 C 3.675781 -23.191406 5.097656 -26.507812 6.8125 -29.78125 C 8.574219 -33.132812 10.863281 -36.234375 13.691406 -39.074219 C 16.578125 -41.980469 19.726562 -44.070312 23.140625 -45.347656 C 23.882812 -45.625 24.542969 -45.726562 25.125 -45.65625 C 25.605469 -45.597656 26.027344 -45.429688 26.394531 -45.15625 C 26.789062 -44.859375 27.078125 -44.476562 27.253906 -44 C 27.46875 -43.425781 27.472656 -42.753906 27.265625 -41.976562 C 27.132812 -41.492188 26.910156 -40.914062 26.59375 -40.246094 C 26.027344 -39.046875 25.121094 -37.472656 23.878906 -35.519531 C 22.648438 -33.589844 21.636719 -32.097656 20.839844 -31.050781 C 20.410156 -30.488281 20.035156 -30.035156 19.707031 -29.699219 C 19.226562 -29.207031 18.769531 -28.875 18.328125 -28.710938 C 17.949219 -28.570312 17.558594 -28.542969 17.167969 -28.636719 C 16.820312 -28.71875 16.515625 -28.878906 16.253906 -29.125 C 16.011719 -29.347656 15.832031 -29.621094 15.710938 -29.945312 C 15.515625 -30.46875 15.542969 -31.011719 15.800781 -31.574219 C 15.855469 -31.695312 15.933594 -31.84375 16.03125 -32.011719 C 16.179688 -32.277344 16.40625 -32.648438 16.710938 -33.117188 L 16.78125 -33.226562 L 16.867188 -33.328125 C 17.195312 -33.714844 17.410156 -34.019531 17.515625 -34.238281 C 17.523438 -34.257812 17.53125 -34.273438 17.53125 -34.28125 C 17.527344 -34.261719 17.519531 -34.234375 17.515625 -34.199219 C 17.488281 -34.011719 17.511719 -33.816406 17.585938 -33.613281 C 17.660156 -33.421875 17.792969 -33.242188 17.996094 -33.074219 C 18.234375 -32.871094 18.507812 -32.742188 18.820312 -32.6875 C 19.140625 -32.628906 19.449219 -32.65625 19.75 -32.769531 C 20.082031 -32.894531 20.324219 -33.074219 20.480469 -33.316406 C 20.472656 -33.304688 20.449219 -33.25 20.410156 -33.152344 L 20.339844 -32.96875 L 20.234375 -32.804688 C 19.125 -31.089844 17.324219 -29.09375 14.828125 -26.824219 L 13.503906 -28.28125 L 14.898438 -26.894531 C 14.757812 -26.753906 14.679688 -26.660156 14.664062 -26.617188 C 14.738281 -26.804688 14.734375 -27.015625 14.644531 -27.25 C 14.667969 -27.191406 14.695312 -27.152344 14.726562 -27.128906 C 14.824219 -27.0625 14.992188 -27.015625 15.234375 -26.984375 C 16.050781 -26.886719 16.753906 -26.945312 17.335938 -27.164062 C 18.972656 -27.777344 20.71875 -29.105469 22.582031 -31.160156 C 24.515625 -33.289062 26.011719 -35.546875 27.074219 -37.929688 C 28.003906 -40.015625 28.257812 -41.617188 27.839844 -42.734375 C 27.679688 -43.167969 27.441406 -43.492188 27.132812 -43.710938 C 26.777344 -43.960938 26.285156 -44.113281 25.65625 -44.171875 C 24.003906 -44.328125 22.351562 -44.097656 20.703125 -43.484375 C 17.566406 -42.3125 14.46875 -40.320312 11.410156 -37.503906 C 8.292969 -34.640625 5.664062 -31.476562 3.527344 -28.015625 C 1.410156 -24.585938 -0.078125 -20.972656 -0.9375 -17.171875 C -1.757812 -13.53125 -1.683594 -10.359375 -0.707031 -7.664062 Z M -0.707031 -7.664062 "/></g></g></g><g fill="#ededed" fill-opacity="1"><g transform="translate(46.253309, 73.18498)"><g><path d="M 4.683594 -7.542969 C 4.957031 -7.648438 5.441406 -8.039062 6.128906 -8.722656 C 6.960938 -9.550781 7.96875 -10.714844 9.15625 -12.214844 C 11.589844 -15.292969 13.738281 -18.265625 15.605469 -21.125 L 19.324219 -26.757812 L 20.734375 -26.3125 C 21.730469 -26.003906 22.398438 -25.382812 22.746094 -24.457031 C 23.070312 -23.582031 22.992188 -22.675781 22.503906 -21.742188 C 22.289062 -21.332031 21.984375 -20.734375 21.589844 -19.957031 C 21.179688 -19.152344 20.386719 -17.699219 19.210938 -15.597656 C 18.035156 -13.503906 16.929688 -11.585938 15.886719 -9.839844 C 13.054688 -5.070312 10.726562 -1.984375 8.898438 -0.589844 L 8.882812 -0.574219 L 8.863281 -0.5625 C 8.1875 -0.0703125 7.457031 0.320312 6.667969 0.617188 C 5.882812 0.910156 5.203125 1.082031 4.628906 1.136719 C 3.976562 1.195312 3.25 1.101562 2.457031 0.859375 L 2.410156 0.84375 L 2.367188 0.828125 C 1.421875 0.488281 0.570312 -0.210938 -0.179688 -1.269531 C -0.792969 -2.132812 -1.359375 -3.265625 -1.886719 -4.671875 C -2.234375 -5.605469 -2.371094 -7.019531 -2.296875 -8.910156 C -2.230469 -10.671875 -1.875 -12.867188 -1.230469 -15.5 C -0.59375 -18.097656 0.273438 -20.777344 1.378906 -23.539062 C 2.503906 -26.347656 4.128906 -29.328125 6.261719 -32.488281 C 8.40625 -35.667969 10.894531 -38.527344 13.726562 -41.066406 L 13.765625 -41.101562 L 13.804688 -41.132812 C 14.402344 -41.613281 14.996094 -41.964844 15.585938 -42.1875 C 16.507812 -42.53125 17.445312 -42.46875 18.410156 -42.003906 C 19.109375 -41.660156 19.683594 -41.230469 20.128906 -40.710938 L 18.632812 -39.433594 L 19.972656 -40.875 L 20.742188 -40.15625 L 20.902344 -39.722656 C 21.1875 -38.957031 21.144531 -37.851562 20.765625 -36.40625 C 20.472656 -35.28125 19.96875 -33.828125 19.253906 -32.039062 C 17.8125 -28.386719 15.945312 -24.722656 13.65625 -21.046875 C 11.394531 -17.417969 9.222656 -14.230469 7.136719 -11.476562 C 5.914062 -9.800781 5.46875 -8.511719 5.808594 -7.601562 C 5.863281 -7.457031 5.910156 -7.351562 5.957031 -7.273438 C 5.960938 -7.265625 5.964844 -7.257812 5.96875 -7.253906 C 5.96875 -7.253906 5.96875 -7.253906 5.964844 -7.257812 C 5.945312 -7.285156 5.917969 -7.308594 5.886719 -7.339844 C 5.738281 -7.464844 5.554688 -7.550781 5.339844 -7.59375 C 5.105469 -7.636719 4.886719 -7.621094 4.683594 -7.542969 Z M 6.058594 -3.859375 C 5.578125 -3.679688 5.089844 -3.636719 4.601562 -3.730469 C 4.128906 -3.820312 3.699219 -4.03125 3.316406 -4.359375 C 2.828125 -4.78125 2.433594 -5.402344 2.125 -6.222656 C 1.289062 -8.460938 1.914062 -11 4 -13.851562 C 6.015625 -16.507812 8.121094 -19.601562 10.316406 -23.125 C 12.480469 -26.601562 14.242188 -30.058594 15.601562 -33.5 C 16.253906 -35.136719 16.707031 -36.433594 16.960938 -37.398438 C 17.070312 -37.816406 17.136719 -38.152344 17.160156 -38.402344 C 17.164062 -38.472656 17.167969 -38.523438 17.164062 -38.554688 C 17.167969 -38.5 17.1875 -38.429688 17.21875 -38.347656 L 19.0625 -39.035156 L 17.722656 -37.59375 L 17.207031 -38.070312 L 17.136719 -38.15625 C 17.046875 -38.261719 16.898438 -38.363281 16.691406 -38.464844 C 16.675781 -38.472656 16.664062 -38.476562 16.660156 -38.476562 C 16.671875 -38.472656 16.691406 -38.46875 16.714844 -38.46875 C 16.800781 -38.460938 16.882812 -38.472656 16.964844 -38.503906 C 16.769531 -38.429688 16.542969 -38.289062 16.277344 -38.074219 L 15.039062 -39.605469 L 16.355469 -38.140625 C 13.761719 -35.816406 11.484375 -33.199219 9.523438 -30.289062 C 7.546875 -27.363281 6.050781 -24.625 5.03125 -22.078125 C 3.996094 -19.488281 3.179688 -16.984375 2.589844 -14.566406 C 2.007812 -12.191406 1.691406 -10.253906 1.632812 -8.757812 C 1.578125 -7.390625 1.632812 -6.488281 1.800781 -6.046875 C 2.203125 -4.960938 2.613281 -4.128906 3.027344 -3.546875 C 3.300781 -3.160156 3.527344 -2.933594 3.699219 -2.871094 L 3.035156 -1.023438 L 3.609375 -2.902344 C 3.910156 -2.808594 4.132812 -2.769531 4.273438 -2.78125 C 4.492188 -2.800781 4.832031 -2.898438 5.292969 -3.070312 C 5.746094 -3.238281 6.164062 -3.464844 6.550781 -3.742188 L 7.707031 -2.152344 L 6.511719 -3.714844 C 7.9375 -4.800781 9.933594 -7.515625 12.507812 -11.855469 C 13.53125 -13.570312 14.621094 -15.457031 15.777344 -17.519531 C 16.929688 -19.574219 17.699219 -20.980469 18.085938 -21.742188 C 18.484375 -22.53125 18.796875 -23.136719 19.015625 -23.558594 C 19.023438 -23.570312 19.027344 -23.578125 19.027344 -23.582031 C 19.019531 -23.554688 19.011719 -23.527344 19.007812 -23.492188 C 18.992188 -23.355469 19.007812 -23.21875 19.0625 -23.078125 C 19.113281 -22.9375 19.199219 -22.8125 19.316406 -22.710938 C 19.402344 -22.632812 19.484375 -22.585938 19.5625 -22.558594 L 20.148438 -24.4375 L 21.789062 -23.351562 L 18.898438 -18.976562 C 16.96875 -16.015625 14.75 -12.949219 12.242188 -9.777344 C 10.957031 -8.152344 9.84375 -6.871094 8.898438 -5.933594 C 7.8125 -4.851562 6.863281 -4.160156 6.058594 -3.859375 Z M 5.304688 -19.367188 C 5.164062 -19.3125 5.066406 -19.261719 5.007812 -19.207031 C 5.0625 -19.257812 5.136719 -19.339844 5.230469 -19.460938 C 5.492188 -19.796875 5.820312 -20.296875 6.207031 -20.957031 C 7.042969 -22.375 8.105469 -24.453125 9.398438 -27.1875 C 10.703125 -29.945312 11.65625 -32.058594 12.257812 -33.535156 C 12.546875 -34.234375 12.746094 -34.773438 12.859375 -35.148438 C 12.902344 -35.285156 12.925781 -35.375 12.933594 -35.425781 C 12.898438 -35.21875 12.933594 -34.980469 13.035156 -34.710938 L 14.875 -35.398438 L 13.535156 -33.960938 L 13.449219 -34.039062 L 14.789062 -35.480469 L 16.199219 -34.105469 L 15.507812 -33.402344 L 14.101562 -34.773438 L 15.6875 -33.609375 C 14.46875 -31.953125 12.972656 -29.308594 11.195312 -25.667969 C 9.421875 -22.039062 8.289062 -19.328125 7.804688 -17.535156 L 7.792969 -17.488281 L 7.777344 -17.4375 L 7.773438 -17.429688 C 7.78125 -17.457031 7.785156 -17.488281 7.789062 -17.523438 C 7.824219 -17.773438 7.789062 -18.03125 7.691406 -18.296875 C 7.546875 -18.6875 7.285156 -18.992188 6.914062 -19.214844 C 6.398438 -19.523438 5.863281 -19.574219 5.304688 -19.367188 Z M 6.679688 -15.679688 C 6.058594 -15.449219 5.464844 -15.5 4.898438 -15.839844 C 4.480469 -16.089844 4.183594 -16.449219 4.007812 -16.921875 C 3.816406 -17.433594 3.824219 -18.015625 4.039062 -18.664062 L 5.90625 -18.050781 L 4.007812 -18.566406 C 4.558594 -20.597656 5.777344 -23.539062 7.660156 -27.398438 C 9.542969 -31.246094 11.160156 -34.09375 12.519531 -35.941406 L 12.597656 -36.050781 L 14.726562 -38.226562 L 16.554688 -36.523438 L 16.71875 -36.089844 C 16.863281 -35.703125 16.894531 -35.269531 16.816406 -34.789062 C 16.777344 -34.566406 16.714844 -34.304688 16.621094 -34 C 16.472656 -33.507812 16.230469 -32.859375 15.902344 -32.046875 C 15.269531 -30.507812 14.289062 -28.328125 12.953125 -25.507812 C 11.609375 -22.664062 10.492188 -20.484375 9.597656 -18.960938 C 9.121094 -18.152344 8.695312 -17.507812 8.324219 -17.035156 C 7.777344 -16.335938 7.230469 -15.886719 6.679688 -15.679688 Z M 6.679688 -15.679688 "/></g></g></g><g fill="#ededed" fill-opacity="1"><g transform="translate(62.415626, 67.145314)"><g><path d="M 9.855469 -10.515625 C 13.695312 -14.886719 17.703125 -20.304688 21.886719 -26.773438 L 22.699219 -28.027344 L 24.125 -27.582031 C 25.117188 -27.269531 25.789062 -26.652344 26.136719 -25.722656 C 26.460938 -24.847656 26.382812 -23.941406 25.894531 -23.007812 C 25.679688 -22.597656 25.375 -22.003906 24.980469 -21.226562 C 24.570312 -20.417969 23.777344 -18.964844 22.597656 -16.863281 C 21.425781 -14.769531 20.316406 -12.851562 19.277344 -11.105469 C 16.445312 -6.335938 14.117188 -3.253906 12.289062 -1.855469 L 12.269531 -1.839844 L 12.25 -1.828125 C 11.578125 -1.339844 10.816406 -0.933594 9.960938 -0.613281 C 9.382812 -0.398438 8.808594 -0.324219 8.242188 -0.394531 C 7.644531 -0.46875 7.097656 -0.691406 6.597656 -1.066406 C 5.847656 -1.625 5.246094 -2.519531 4.785156 -3.746094 C 4.554688 -4.363281 4.46875 -5.222656 4.523438 -6.332031 L 4.597656 -7.785156 C 4.605469 -7.953125 4.613281 -8.09375 4.628906 -8.210938 C 4.644531 -8.371094 4.667969 -8.519531 4.703125 -8.660156 C 4.625 -8.335938 4.644531 -8.019531 4.757812 -7.714844 C 4.945312 -7.222656 5.273438 -6.867188 5.75 -6.648438 C 6.015625 -6.527344 6.289062 -6.472656 6.570312 -6.480469 C 6.730469 -6.488281 6.859375 -6.507812 6.957031 -6.546875 C 7.265625 -6.664062 7.5 -6.824219 7.660156 -7.027344 C 7.640625 -7.007812 7.605469 -6.949219 7.554688 -6.863281 C 7.390625 -6.589844 7.175781 -6.175781 6.902344 -5.617188 C 6.296875 -4.378906 5.78125 -3.375 5.359375 -2.597656 C 4.890625 -1.746094 4.324219 -0.902344 3.652344 -0.0664062 C 2.828125 0.960938 2.003906 1.632812 1.171875 1.941406 C 0.0390625 2.367188 -0.988281 2.390625 -1.90625 2.015625 C -2.875 1.617188 -3.574219 0.847656 -4 -0.296875 C -4.375 -1.289062 -4.496094 -2.546875 -4.375 -4.070312 C -4.117188 -7.136719 -3.253906 -10.402344 -1.785156 -13.875 C -1.046875 -15.621094 -0.355469 -16.996094 0.296875 -18.011719 C 1.105469 -19.28125 1.945312 -20.09375 2.8125 -20.449219 L 2.875 -20.472656 C 3.703125 -20.78125 4.542969 -20.769531 5.402344 -20.441406 C 6.34375 -20.074219 6.980469 -19.453125 7.308594 -18.574219 C 7.507812 -18.039062 7.527344 -17.425781 7.363281 -16.730469 C 7.261719 -16.296875 7.082031 -15.796875 6.824219 -15.230469 C 6.417969 -14.339844 5.910156 -13.195312 5.300781 -11.800781 C 4.75 -10.535156 4.410156 -9.558594 4.285156 -8.867188 C 4.222656 -8.523438 4.183594 -8.257812 4.171875 -8.066406 C 4.167969 -8.015625 4.167969 -7.988281 4.167969 -7.976562 C 4.164062 -8.074219 4.136719 -8.179688 4.089844 -8.304688 C 3.925781 -8.746094 3.609375 -9.054688 3.140625 -9.234375 C 2.765625 -9.375 2.414062 -9.382812 2.082031 -9.261719 C 1.972656 -9.21875 1.886719 -9.175781 1.820312 -9.125 C 1.828125 -9.132812 1.847656 -9.152344 1.882812 -9.183594 C 2.015625 -9.316406 2.191406 -9.519531 2.402344 -9.792969 L 3.957031 -8.589844 L 2.347656 -9.71875 C 3.714844 -11.664062 5.242188 -14 6.933594 -16.734375 C 8.5625 -19.371094 9.535156 -21.171875 9.859375 -22.132812 L 11.722656 -21.511719 L 9.765625 -21.34375 C 9.691406 -22.1875 9.914062 -22.9375 10.429688 -23.585938 C 10.847656 -24.109375 11.429688 -24.511719 12.179688 -24.789062 C 14.980469 -25.835938 16.710938 -25.46875 17.378906 -23.683594 C 17.546875 -23.230469 17.554688 -22.71875 17.402344 -22.144531 C 17.335938 -21.898438 17.230469 -21.597656 17.089844 -21.242188 C 16.847656 -20.628906 16.46875 -19.789062 15.953125 -18.722656 C 14.5 -15.710938 13.464844 -13.339844 12.84375 -11.605469 C 12.558594 -10.800781 12.367188 -10.15625 12.273438 -9.675781 C 12.238281 -9.496094 12.222656 -9.359375 12.21875 -9.265625 L 12.21875 -9.269531 C 12.210938 -9.332031 12.191406 -9.398438 12.164062 -9.472656 C 12.019531 -9.863281 11.75 -10.160156 11.355469 -10.363281 C 10.890625 -10.605469 10.417969 -10.640625 9.945312 -10.464844 C 9.804688 -10.410156 9.703125 -10.359375 9.644531 -10.308594 C 9.703125 -10.359375 9.789062 -10.441406 9.894531 -10.558594 L 11.335938 -9.21875 Z M 12.8125 -7.921875 L 12.792969 -7.898438 L 12.773438 -7.878906 C 12.246094 -7.308594 11.761719 -6.941406 11.324219 -6.777344 C 10.703125 -6.546875 10.105469 -6.578125 9.539062 -6.875 C 9.039062 -7.136719 8.6875 -7.542969 8.480469 -8.09375 C 8.253906 -8.703125 8.230469 -9.476562 8.410156 -10.421875 C 8.542969 -11.101562 8.785156 -11.9375 9.140625 -12.929688 C 9.808594 -14.792969 10.898438 -17.292969 12.410156 -20.429688 C 12.886719 -21.414062 13.226562 -22.167969 13.433594 -22.691406 C 13.519531 -22.90625 13.574219 -23.0625 13.601562 -23.160156 C 13.597656 -23.136719 13.59375 -23.105469 13.589844 -23.074219 C 13.5625 -22.824219 13.597656 -22.566406 13.695312 -22.304688 C 13.824219 -21.957031 14.054688 -21.703125 14.382812 -21.539062 C 14.53125 -21.46875 14.652344 -21.433594 14.746094 -21.433594 C 14.527344 -21.429688 14.128906 -21.320312 13.554688 -21.105469 C 13.488281 -21.078125 13.4375 -21.058594 13.410156 -21.039062 C 13.4375 -21.058594 13.46875 -21.089844 13.503906 -21.132812 C 13.640625 -21.304688 13.699219 -21.488281 13.683594 -21.683594 L 13.71875 -21.277344 L 13.589844 -20.890625 C 13.171875 -19.636719 12.066406 -17.5625 10.277344 -14.667969 C 8.546875 -11.867188 6.976562 -9.464844 5.566406 -7.457031 L 5.539062 -7.421875 L 5.511719 -7.382812 C 4.753906 -6.40625 4.070312 -5.804688 3.460938 -5.574219 C 2.867188 -5.355469 2.296875 -5.347656 1.75 -5.554688 C 1.105469 -5.796875 0.65625 -6.253906 0.40625 -6.925781 C 0.265625 -7.300781 0.214844 -7.765625 0.246094 -8.308594 C 0.269531 -8.65625 0.324219 -9.074219 0.414062 -9.570312 C 0.59375 -10.5625 1.019531 -11.828125 1.695312 -13.375 C 2.3125 -14.789062 2.828125 -15.953125 3.242188 -16.859375 C 3.394531 -17.191406 3.492188 -17.449219 3.535156 -17.628906 L 3.539062 -17.632812 C 3.539062 -17.496094 3.566406 -17.351562 3.621094 -17.199219 C 3.671875 -17.070312 3.742188 -16.964844 3.839844 -16.871094 C 3.894531 -16.820312 3.945312 -16.785156 3.984375 -16.769531 C 4.054688 -16.742188 4.144531 -16.75 4.25 -16.789062 L 3.5625 -18.632812 L 4.3125 -16.8125 C 4.335938 -16.820312 4.351562 -16.832031 4.367188 -16.839844 L 4.363281 -16.835938 C 4.324219 -16.804688 4.273438 -16.761719 4.214844 -16.699219 C 4.035156 -16.511719 3.832031 -16.242188 3.609375 -15.890625 C 3.078125 -15.0625 2.488281 -13.882812 1.839844 -12.34375 C 0.535156 -9.257812 -0.230469 -6.394531 -0.453125 -3.753906 C -0.53125 -2.8125 -0.484375 -2.121094 -0.316406 -1.671875 C -0.285156 -1.585938 -0.257812 -1.53125 -0.238281 -1.507812 C -0.28125 -1.554688 -0.335938 -1.59375 -0.414062 -1.625 C -0.46875 -1.648438 -0.507812 -1.660156 -0.53125 -1.65625 C -0.457031 -1.660156 -0.347656 -1.691406 -0.203125 -1.742188 C -0.175781 -1.753906 -0.113281 -1.800781 -0.015625 -1.882812 C 0.164062 -2.035156 0.363281 -2.25 0.585938 -2.527344 C 1.109375 -3.183594 1.550781 -3.835938 1.90625 -4.484375 C 2.300781 -5.207031 2.789062 -6.164062 3.371094 -7.347656 C 3.6875 -8 3.957031 -8.507812 4.171875 -8.871094 C 4.308594 -9.101562 4.4375 -9.292969 4.554688 -9.441406 C 4.851562 -9.824219 5.191406 -10.085938 5.582031 -10.230469 C 5.878906 -10.34375 6.164062 -10.402344 6.429688 -10.414062 C 6.765625 -10.425781 7.085938 -10.363281 7.382812 -10.226562 C 7.894531 -9.992188 8.246094 -9.613281 8.445312 -9.089844 C 8.609375 -8.652344 8.636719 -8.210938 8.53125 -7.761719 C 8.535156 -7.777344 8.539062 -7.785156 8.539062 -7.796875 L 8.539062 -7.792969 C 8.535156 -7.753906 8.53125 -7.6875 8.527344 -7.589844 L 8.453125 -6.132812 C 8.4375 -5.796875 8.4375 -5.523438 8.453125 -5.308594 C 8.460938 -5.230469 8.46875 -5.164062 8.476562 -5.117188 L 8.46875 -5.125 C 8.585938 -4.820312 8.699219 -4.578125 8.816406 -4.394531 C 8.878906 -4.296875 8.925781 -4.234375 8.953125 -4.214844 C 8.894531 -4.257812 8.816406 -4.285156 8.71875 -4.296875 C 8.648438 -4.308594 8.605469 -4.308594 8.582031 -4.300781 C 9.101562 -4.492188 9.554688 -4.730469 9.9375 -5.007812 L 11.09375 -3.417969 L 9.902344 -4.980469 C 11.324219 -6.070312 13.324219 -8.78125 15.898438 -13.125 C 16.921875 -14.835938 18.011719 -16.726562 19.167969 -18.789062 C 20.320312 -20.839844 21.089844 -22.246094 21.472656 -23.007812 C 21.875 -23.796875 22.183594 -24.402344 22.40625 -24.824219 C 22.414062 -24.839844 22.417969 -24.84375 22.417969 -24.847656 C 22.410156 -24.824219 22.402344 -24.792969 22.398438 -24.757812 C 22.378906 -24.621094 22.398438 -24.484375 22.449219 -24.34375 C 22.503906 -24.203125 22.589844 -24.082031 22.707031 -23.976562 C 22.789062 -23.902344 22.871094 -23.851562 22.949219 -23.828125 L 23.539062 -25.703125 L 25.191406 -24.636719 C 20.902344 -18.007812 16.777344 -12.4375 12.8125 -7.921875 Z M 12.8125 -7.921875 "/></g></g></g><g fill="#ededed" fill-opacity="1"><g transform="translate(82.26236, 59.728826)"><g><path d="M 9.40625 -43.742188 C 10.570312 -44.175781 11.570312 -44.335938 12.40625 -44.21875 C 13.011719 -44.136719 13.535156 -43.921875 13.984375 -43.574219 C 14.449219 -43.214844 14.789062 -42.746094 15.007812 -42.167969 C 15.390625 -41.140625 15.414062 -39.8125 15.070312 -38.183594 C 14.78125 -36.804688 14.222656 -35.136719 13.394531 -33.179688 C 11.804688 -29.410156 10.066406 -25.988281 8.1875 -22.90625 L 5.527344 -18.402344 L 3.835938 -19.402344 L 5.679688 -18.726562 L 5.675781 -18.738281 C 5.707031 -18.960938 5.675781 -19.195312 5.582031 -19.441406 C 5.386719 -19.96875 5.015625 -20.320312 4.472656 -20.496094 C 4.085938 -20.625 3.722656 -20.621094 3.371094 -20.492188 L 4.058594 -18.648438 L 2.484375 -19.824219 C 4.664062 -22.753906 6.941406 -24.703125 9.316406 -25.679688 L 9.34375 -25.691406 L 9.375 -25.703125 C 10.15625 -25.992188 10.953125 -26.035156 11.765625 -25.824219 L 11.839844 -25.804688 L 11.914062 -25.777344 C 13.953125 -25.078125 15.308594 -23.832031 15.976562 -22.039062 C 16.332031 -21.089844 16.355469 -19.804688 16.046875 -18.1875 C 15.789062 -16.824219 15.285156 -15.140625 14.542969 -13.132812 L 12.695312 -13.816406 L 11.582031 -15.433594 C 12.371094 -15.976562 13.40625 -17.058594 14.691406 -18.679688 C 16.054688 -20.398438 17.171875 -21.957031 18.042969 -23.355469 L 20.210938 -26.835938 L 21.664062 -26.378906 C 22.65625 -26.070312 23.324219 -25.449219 23.671875 -24.523438 C 24 -23.644531 23.929688 -22.757812 23.457031 -21.863281 C 21.644531 -18.257812 19.910156 -15.394531 18.25 -13.273438 C 16.445312 -10.964844 14.671875 -9.484375 12.933594 -8.835938 C 12.636719 -8.726562 12.226562 -8.617188 11.699219 -8.515625 L 8.714844 -7.933594 L 9.453125 -11.078125 L 11.367188 -10.628906 L 13.148438 -9.800781 C 11.871094 -7.058594 10.464844 -4.644531 8.925781 -2.558594 C 7.234375 -0.261719 5.582031 1.1875 3.972656 1.789062 C 2.054688 2.507812 0.417969 2.699219 -0.941406 2.367188 C -1.761719 2.167969 -2.464844 1.785156 -3.058594 1.226562 C -3.617188 0.695312 -4.050781 0.0273438 -4.351562 -0.78125 C -4.84375 -2.105469 -5.011719 -3.75 -4.847656 -5.71875 C -4.699219 -7.519531 -4.371094 -9.304688 -3.871094 -11.078125 C -3.394531 -12.765625 -2.878906 -14.386719 -2.324219 -15.9375 C -1.773438 -17.488281 -1.277344 -18.753906 -0.84375 -19.738281 C -0.628906 -20.222656 -0.46875 -20.585938 -0.355469 -20.824219 C -0.285156 -20.96875 -0.230469 -21.082031 -0.183594 -21.167969 C -0.132812 -21.261719 -0.0820312 -21.347656 -0.0273438 -21.425781 C 0.0976562 -21.601562 0.242188 -21.75 0.410156 -21.878906 C 0.820312 -22.183594 1.277344 -22.3125 1.78125 -22.261719 C 2.230469 -22.21875 2.621094 -22.042969 2.949219 -21.730469 C 3.167969 -21.523438 3.332031 -21.277344 3.4375 -20.992188 L 1.59375 -20.304688 L -0.25 -20.988281 C 1.058594 -24.5 2.140625 -27.695312 2.996094 -30.574219 C 3.839844 -33.414062 4.355469 -35.382812 4.539062 -36.476562 C 4.75 -37.75 5.023438 -38.886719 5.355469 -39.882812 C 5.78125 -41.15625 6.324219 -42.046875 6.976562 -42.546875 C 7.464844 -42.917969 8.273438 -43.316406 9.40625 -43.742188 Z M 10.785156 -40.058594 C 10.019531 -39.769531 9.542969 -39.558594 9.367188 -39.421875 C 9.414062 -39.460938 9.449219 -39.492188 9.472656 -39.519531 C 9.457031 -39.5 9.433594 -39.464844 9.40625 -39.414062 C 9.304688 -39.226562 9.199219 -38.96875 9.085938 -38.632812 C 8.820312 -37.835938 8.597656 -36.902344 8.417969 -35.828125 C 8.207031 -34.574219 7.65625 -32.449219 6.765625 -29.453125 C 5.882812 -26.492188 4.773438 -23.214844 3.4375 -19.617188 L 1.597656 -14.671875 L -0.246094 -19.613281 C -0.140625 -19.332031 0.0195312 -19.085938 0.242188 -18.878906 C 0.566406 -18.566406 0.957031 -18.390625 1.402344 -18.347656 C 1.910156 -18.296875 2.363281 -18.425781 2.769531 -18.730469 C 2.933594 -18.851562 3.074219 -18.996094 3.1875 -19.160156 C 3.226562 -19.214844 3.257812 -19.261719 3.28125 -19.304688 C 3.269531 -19.285156 3.242188 -19.230469 3.203125 -19.148438 C 3.105469 -18.9375 2.953125 -18.605469 2.753906 -18.148438 C 2.359375 -17.253906 1.902344 -16.078125 1.378906 -14.613281 C 0.855469 -13.148438 0.367188 -11.613281 -0.0859375 -10.007812 C -0.519531 -8.480469 -0.800781 -6.941406 -0.929688 -5.394531 C -1.042969 -4.007812 -0.957031 -2.929688 -0.667969 -2.160156 C -0.578125 -1.917969 -0.472656 -1.742188 -0.355469 -1.628906 C -0.265625 -1.546875 -0.152344 -1.488281 -0.00390625 -1.453125 C 0.566406 -1.3125 1.433594 -1.460938 2.59375 -1.894531 C 3.476562 -2.222656 4.527344 -3.222656 5.757812 -4.890625 C 7.144531 -6.769531 8.417969 -8.957031 9.585938 -11.460938 L 13.28125 -10.179688 L 13.238281 -9.996094 L 11.324219 -10.445312 L 10.949219 -12.375 C 11.257812 -12.4375 11.460938 -12.484375 11.558594 -12.519531 C 12.601562 -12.910156 13.800781 -13.96875 15.152344 -15.695312 C 16.652344 -17.613281 18.261719 -20.28125 19.980469 -23.703125 C 19.960938 -23.667969 19.945312 -23.609375 19.9375 -23.535156 C 19.925781 -23.402344 19.941406 -23.269531 19.988281 -23.144531 C 20.039062 -23.003906 20.125 -22.882812 20.242188 -22.777344 C 20.328125 -22.699219 20.410156 -22.652344 20.488281 -22.625 L 21.074219 -24.503906 L 22.746094 -23.464844 L 21.378906 -21.273438 C 20.429688 -19.75 19.230469 -18.074219 17.773438 -16.238281 C 16.246094 -14.308594 14.925781 -12.960938 13.8125 -12.195312 L 8.695312 -8.675781 L 10.851562 -14.496094 C 11.519531 -16.300781 11.964844 -17.777344 12.183594 -18.925781 C 12.28125 -19.4375 12.332031 -19.867188 12.335938 -20.210938 C 12.335938 -20.433594 12.320312 -20.585938 12.292969 -20.660156 C 12.058594 -21.292969 11.503906 -21.761719 10.632812 -22.058594 L 11.273438 -23.917969 L 10.78125 -22.015625 C 10.765625 -22.019531 10.757812 -22.019531 10.75 -22.015625 L 10.0625 -23.859375 L 10.808594 -22.039062 C 9.109375 -21.339844 7.382812 -19.820312 5.636719 -17.472656 L 5.292969 -17.007812 L 4.75 -16.808594 C 4.234375 -16.613281 3.734375 -16.601562 3.246094 -16.761719 C 2.59375 -16.972656 2.144531 -17.410156 1.898438 -18.066406 C 1.679688 -18.652344 1.710938 -19.320312 1.988281 -20.082031 L 2.050781 -20.25 L 4.832031 -24.957031 C 6.609375 -27.871094 8.257812 -31.121094 9.773438 -34.710938 C 10.5 -36.433594 10.984375 -37.859375 11.222656 -38.992188 C 11.40625 -39.875 11.441406 -40.472656 11.324219 -40.789062 C 11.367188 -40.667969 11.453125 -40.5625 11.578125 -40.464844 C 11.683594 -40.382812 11.78125 -40.335938 11.875 -40.324219 C 11.6875 -40.347656 11.328125 -40.257812 10.785156 -40.058594 Z M 1.519531 -4.625 C 1.878906 -4.761719 2.292969 -5.101562 2.769531 -5.648438 C 3.367188 -6.339844 3.988281 -7.292969 4.636719 -8.511719 C 6.007812 -11.089844 7.050781 -13.628906 7.761719 -16.128906 C 8.117188 -17.371094 8.355469 -18.359375 8.472656 -19.09375 C 8.519531 -19.40625 8.546875 -19.652344 8.550781 -19.839844 C 8.550781 -19.890625 8.550781 -19.925781 8.546875 -19.945312 C 8.550781 -19.902344 8.566406 -19.847656 8.589844 -19.78125 C 8.761719 -19.324219 9.078125 -18.988281 9.539062 -18.777344 C 10 -18.566406 10.460938 -18.550781 10.917969 -18.722656 C 9.667969 -18.253906 8.421875 -16.90625 7.179688 -14.6875 C 5.785156 -12.195312 4.789062 -9.769531 4.183594 -7.417969 C 3.886719 -6.25 3.695312 -5.300781 3.613281 -4.574219 C 3.578125 -4.265625 3.566406 -4.011719 3.574219 -3.8125 C 3.578125 -3.746094 3.582031 -3.691406 3.589844 -3.652344 C 3.589844 -3.648438 3.589844 -3.644531 3.589844 -3.644531 C 3.585938 -3.65625 3.582031 -3.671875 3.578125 -3.6875 C 3.429688 -4.082031 3.148438 -4.375 2.734375 -4.5625 C 2.316406 -4.753906 1.914062 -4.773438 1.519531 -4.625 Z M 2.894531 -0.941406 C 2.273438 -0.707031 1.671875 -0.722656 1.101562 -0.984375 C 0.527344 -1.246094 0.125 -1.6875 -0.109375 -2.3125 C -0.359375 -2.980469 -0.421875 -3.878906 -0.292969 -5.007812 C -0.195312 -5.917969 0.03125 -7.046875 0.375 -8.394531 C 1.0625 -11.078125 2.1875 -13.816406 3.746094 -16.605469 C 5.457031 -19.667969 7.390625 -21.601562 9.542969 -22.40625 C 10.101562 -22.613281 10.644531 -22.597656 11.171875 -22.355469 C 11.699219 -22.117188 12.066406 -21.71875 12.277344 -21.160156 C 12.511719 -20.523438 12.539062 -19.628906 12.355469 -18.472656 C 12.214844 -17.582031 11.941406 -16.441406 11.546875 -15.046875 C 10.757812 -12.285156 9.609375 -9.488281 8.109375 -6.664062 C 6.441406 -3.527344 4.703125 -1.617188 2.894531 -0.941406 Z M 2.894531 -0.941406 "/></g></g></g><g fill="#004eb6" fill-opacity="1"><g transform="translate(21.150136, 82.565737)"><g><path d="M -2.5625 -7 C -3.65625 -10.050781 -3.75 -13.582031 -2.84375 -17.59375 C -1.945312 -21.613281 -0.382812 -25.429688 1.84375 -29.046875 C 4.070312 -32.660156 6.8125 -35.957031 10.0625 -38.9375 C 13.320312 -41.925781 16.640625 -44.050781 20.015625 -45.3125 C 21.941406 -46.039062 23.882812 -46.3125 25.84375 -46.125 C 27.800781 -45.9375 29.082031 -45.03125 29.6875 -43.40625 C 30.289062 -41.789062 30.019531 -39.695312 28.875 -37.125 C 27.726562 -34.550781 26.113281 -32.117188 24.03125 -29.828125 C 21.957031 -27.546875 19.957031 -26.046875 18.03125 -25.328125 C 17.132812 -24.992188 16.125 -24.894531 15 -25.03125 C 13.875 -25.164062 13.144531 -25.671875 12.8125 -26.546875 C 12.625 -27.046875 12.851562 -27.625 13.5 -28.28125 C 15.863281 -30.4375 17.554688 -32.300781 18.578125 -33.875 C 18.753906 -34.3125 18.914062 -34.554688 19.0625 -34.609375 C 19.207031 -34.671875 19.332031 -34.566406 19.4375 -34.296875 C 19.601562 -33.835938 19.242188 -33.085938 18.359375 -32.046875 C 17.785156 -31.160156 17.507812 -30.679688 17.53125 -30.609375 C 17.5625 -30.546875 17.597656 -30.523438 17.640625 -30.546875 C 18.296875 -30.785156 19.820312 -32.789062 22.21875 -36.5625 C 24.613281 -40.332031 25.675781 -42.582031 25.40625 -43.3125 C 25.238281 -43.769531 24.710938 -43.832031 23.828125 -43.5 C 20.679688 -42.320312 17.765625 -40.382812 15.078125 -37.6875 C 12.390625 -34.988281 10.210938 -32.046875 8.546875 -28.859375 C 6.890625 -25.679688 5.515625 -22.457031 4.421875 -19.1875 C 3.328125 -15.925781 2.632812 -13.019531 2.34375 -10.46875 C 2.0625 -7.925781 2.144531 -6.066406 2.59375 -4.890625 C 2.863281 -4.171875 3.347656 -3.941406 4.046875 -4.203125 C 4.628906 -4.421875 5.703125 -5.117188 7.265625 -6.296875 C 8.835938 -7.472656 11.003906 -9.476562 13.765625 -12.3125 C 16.535156 -15.144531 19.066406 -18.238281 21.359375 -21.59375 C 21.523438 -21.875 21.648438 -22.03125 21.734375 -22.0625 C 21.816406 -22.09375 21.882812 -22.039062 21.9375 -21.90625 C 21.988281 -21.78125 21.910156 -21.117188 21.703125 -19.921875 C 21.492188 -18.722656 21.066406 -17.203125 20.421875 -15.359375 C 19.785156 -13.523438 18.976562 -11.664062 18 -9.78125 C 17.03125 -7.90625 15.679688 -6.101562 13.953125 -4.375 C 12.234375 -2.644531 10.492188 -1.453125 8.734375 -0.796875 C 6.984375 -0.140625 5.492188 0.0625 4.265625 -0.1875 C 3.035156 -0.4375 2.019531 -0.9375 1.21875 -1.6875 C -0.425781 -3.164062 -1.550781 -4.628906 -2.15625 -6.078125 Z M -2.5625 -7 "/></g></g></g><g fill="#004eb6" fill-opacity="1"><g transform="translate(46.253309, 73.18498)"><g><path d="M 5.390625 -5.703125 C 6.460938 -6.097656 8.234375 -7.859375 10.703125 -10.984375 C 13.171875 -14.117188 15.347656 -17.140625 17.234375 -20.046875 L 20.140625 -24.4375 C 20.515625 -24.3125 20.765625 -24.085938 20.890625 -23.765625 C 21.015625 -23.441406 20.96875 -23.066406 20.75 -22.640625 C 20.53125 -22.210938 20.222656 -21.609375 19.828125 -20.828125 C 19.429688 -20.054688 18.648438 -18.628906 17.484375 -16.546875 C 16.316406 -14.472656 15.222656 -12.570312 14.203125 -10.84375 C 11.492188 -6.28125 9.328125 -3.382812 7.703125 -2.15625 C 7.179688 -1.78125 6.609375 -1.472656 5.984375 -1.234375 C 5.359375 -1.003906 4.84375 -0.867188 4.4375 -0.828125 C 4.039062 -0.796875 3.570312 -0.859375 3.03125 -1.015625 C 1.914062 -1.421875 0.890625 -2.867188 -0.046875 -5.359375 C -0.304688 -6.046875 -0.398438 -7.203125 -0.328125 -8.828125 C -0.265625 -10.453125 0.0664062 -12.519531 0.671875 -15.03125 C 1.285156 -17.539062 2.128906 -20.128906 3.203125 -22.796875 C 4.273438 -25.472656 5.832031 -28.332031 7.875 -31.375 C 9.925781 -34.425781 12.316406 -37.164062 15.046875 -39.59375 C 15.472656 -39.945312 15.882812 -40.195312 16.28125 -40.34375 C 16.675781 -40.488281 17.097656 -40.453125 17.546875 -40.234375 C 18.003906 -40.015625 18.363281 -39.742188 18.625 -39.421875 L 19.046875 -39.03125 C 19.328125 -38.28125 18.785156 -36.191406 17.421875 -32.765625 C 16.023438 -29.222656 14.210938 -25.664062 11.984375 -22.09375 C 9.753906 -18.519531 7.617188 -15.375 5.578125 -12.65625 C 3.921875 -10.40625 3.382812 -8.492188 3.96875 -6.921875 C 4.351562 -5.898438 4.828125 -5.492188 5.390625 -5.703125 Z M 5.984375 -17.515625 C 6.804688 -17.828125 8.535156 -20.769531 11.171875 -26.34375 C 13.804688 -31.925781 15.039062 -34.945312 14.875 -35.40625 L 14.796875 -35.453125 L 14.09375 -34.765625 C 12.8125 -33.023438 11.253906 -30.28125 9.421875 -26.53125 C 7.597656 -22.78125 6.421875 -19.953125 5.890625 -18.046875 C 5.828125 -17.835938 5.8125 -17.691406 5.84375 -17.609375 C 5.875 -17.523438 5.921875 -17.492188 5.984375 -17.515625 Z M 5.984375 -17.515625 "/></g></g></g><g fill="#004eb6" fill-opacity="1"><g transform="translate(62.415626, 67.145314)"><g><path d="M 11.328125 -9.21875 C 15.234375 -13.65625 19.300781 -19.15625 23.53125 -25.71875 C 23.90625 -25.582031 24.15625 -25.351562 24.28125 -25.03125 C 24.40625 -24.707031 24.359375 -24.332031 24.140625 -23.90625 C 23.929688 -23.488281 23.625 -22.890625 23.21875 -22.109375 C 22.820312 -21.328125 22.039062 -19.894531 20.875 -17.8125 C 19.71875 -15.738281 18.625 -13.835938 17.59375 -12.109375 C 14.882812 -7.554688 12.71875 -4.660156 11.09375 -3.421875 C 10.5625 -3.035156 9.953125 -2.71875 9.265625 -2.46875 C 8.160156 -2.050781 7.285156 -2.707031 6.640625 -4.4375 C 6.503906 -4.789062 6.453125 -5.382812 6.484375 -6.21875 C 6.523438 -7.0625 6.550781 -7.550781 6.5625 -7.6875 C 6.570312 -7.820312 6.578125 -7.925781 6.578125 -8 C 6.578125 -8.082031 6.585938 -8.148438 6.609375 -8.203125 C 6.628906 -8.265625 6.625 -8.328125 6.59375 -8.390625 C 6.570312 -8.453125 6.460938 -8.445312 6.265625 -8.375 C 6.097656 -8.3125 5.71875 -7.675781 5.125 -6.46875 C 4.53125 -5.269531 4.03125 -4.289062 3.625 -3.53125 C 3.21875 -2.78125 2.710938 -2.03125 2.109375 -1.28125 C 1.515625 -0.539062 0.972656 -0.078125 0.484375 0.109375 C -0.816406 0.585938 -1.691406 0.222656 -2.140625 -0.984375 C -2.410156 -1.710938 -2.5 -2.691406 -2.40625 -3.921875 C -2.175781 -6.765625 -1.367188 -9.828125 0.015625 -13.109375 C 1.398438 -16.398438 2.582031 -18.238281 3.5625 -18.625 C 3.925781 -18.757812 4.300781 -18.75 4.6875 -18.59375 C 5.082031 -18.445312 5.335938 -18.207031 5.453125 -17.875 C 5.578125 -17.550781 5.429688 -16.941406 5.015625 -16.046875 C 4.609375 -15.148438 4.097656 -14 3.484375 -12.59375 C 2.867188 -11.1875 2.484375 -10.0625 2.328125 -9.21875 C 2.179688 -8.382812 2.148438 -7.851562 2.234375 -7.625 C 2.328125 -7.394531 2.503906 -7.328125 2.765625 -7.421875 C 3.023438 -7.523438 3.425781 -7.914062 3.96875 -8.59375 C 5.351562 -10.5625 6.898438 -12.929688 8.609375 -15.703125 C 10.316406 -18.472656 11.359375 -20.410156 11.734375 -21.515625 C 11.671875 -22.148438 12.050781 -22.625 12.875 -22.9375 C 14.4375 -23.519531 15.316406 -23.535156 15.515625 -22.984375 C 15.609375 -22.753906 15.160156 -21.617188 14.171875 -19.578125 C 11.210938 -13.429688 9.929688 -9.832031 10.328125 -8.78125 C 10.378906 -8.625 10.476562 -8.570312 10.625 -8.625 C 10.769531 -8.675781 11.003906 -8.875 11.328125 -9.21875 Z M 11.328125 -9.21875 "/></g></g></g><g fill="#004eb6" fill-opacity="1"><g transform="translate(82.26236, 59.728826)"><g><path d="M 10.09375 -41.875 C 11.789062 -42.507812 12.8125 -42.367188 13.15625 -41.453125 C 13.65625 -40.117188 13.128906 -37.613281 11.578125 -33.9375 C 10.023438 -30.257812 8.332031 -26.921875 6.5 -23.921875 L 3.828125 -19.390625 C 3.710938 -19.085938 3.679688 -18.867188 3.734375 -18.734375 C 3.785156 -18.609375 3.894531 -18.578125 4.0625 -18.640625 C 6.019531 -21.273438 8.019531 -23.015625 10.0625 -23.859375 C 10.445312 -24.003906 10.851562 -24.019531 11.28125 -23.90625 C 12.738281 -23.40625 13.691406 -22.550781 14.140625 -21.34375 C 14.585938 -20.132812 14.109375 -17.628906 12.703125 -13.828125 C 13.640625 -14.472656 14.8125 -15.679688 16.21875 -17.453125 C 17.632812 -19.234375 18.796875 -20.847656 19.703125 -22.296875 L 21.0625 -24.5 C 21.4375 -24.375 21.6875 -24.148438 21.8125 -23.828125 C 21.9375 -23.503906 21.898438 -23.148438 21.703125 -22.765625 C 18.179688 -15.753906 15.023438 -11.726562 12.234375 -10.6875 C 12.046875 -10.613281 11.738281 -10.535156 11.3125 -10.453125 L 11.375 -10.640625 C 10.144531 -8.015625 8.800781 -5.707031 7.34375 -3.71875 C 5.882812 -1.738281 4.53125 -0.515625 3.28125 -0.046875 C 0.207031 1.097656 -1.71875 0.625 -2.5 -1.46875 C -2.894531 -2.519531 -3.019531 -3.882812 -2.875 -5.5625 C -2.738281 -7.238281 -2.4375 -8.898438 -1.96875 -10.546875 C -1.507812 -12.191406 -1.007812 -13.769531 -0.46875 -15.28125 C 0.0703125 -16.789062 0.546875 -18.015625 0.953125 -18.953125 C 1.359375 -19.890625 1.570312 -20.335938 1.59375 -20.296875 C 2.914062 -23.859375 4.007812 -27.09375 4.875 -30 C 5.75 -32.914062 6.285156 -34.960938 6.484375 -36.140625 C 6.679688 -37.316406 6.925781 -38.351562 7.21875 -39.25 C 7.507812 -40.144531 7.820312 -40.71875 8.15625 -40.96875 C 8.488281 -41.21875 9.132812 -41.519531 10.09375 -41.875 Z M 2.21875 -2.78125 C 3.550781 -3.28125 4.9375 -4.878906 6.375 -7.578125 C 7.8125 -10.285156 8.898438 -12.953125 9.640625 -15.578125 C 10.390625 -18.210938 10.648438 -19.835938 10.421875 -20.453125 C 10.390625 -20.554688 10.328125 -20.59375 10.234375 -20.5625 C 8.523438 -19.925781 6.929688 -18.285156 5.453125 -15.640625 C 3.972656 -13.003906 2.910156 -10.425781 2.265625 -7.90625 C 1.628906 -5.382812 1.453125 -3.75 1.734375 -3 C 1.816406 -2.769531 1.976562 -2.695312 2.21875 -2.78125 Z M 2.21875 -2.78125 "/></g></g></g></g></g></g></g></g></g></svg>